<svg xmlns="http://www.w3.org/2000/svg" version="1.1" xmlns:xlink="http://www.w3.org/1999/xlink" xmlns:svgjs="http://svgjs.dev/svgjs" width="100%" height="100%" viewBox="0 0 1000 600"><rect width="1000" height="600" x="0" y="0" fill="violet"/><g><circle r="166.66666666666666" cx="432.81696573893225" cy="455.0391837370271" fill="white" transform="matrix(0.469659384576505,0,0,0.469659384576505,0,86.28656560078379)"/><path d="M429.9578500163096 530.0391258797747L429.9578500163096 530.0391258797747Q409.2039365434563 530.0391258797747 392.8407649123383 521.5639730224718Q376.47759328122027 513.1143477340162 367.2110857896511 497.4914755994698Q357.91905072923464 481.86860346492347 357.91905072923464 460.73177645936073L357.91905072923464 460.73177645936073Q357.91905072923464 442.7348404220157 364.632801336074 427.9288504905828Q371.3465519429134 413.12286055915 382.9105406307394 402.47786434982675Q394.50005688741265 391.80734057165614 409.56132250731844 385.93599973677766Q424.64811569607156 380.03913133305184 441.3686732910517 380.03913133305184L441.3686732910517 380.03913133305184Q455.1535604685926 380.03913133305184 467.1004626891281 383.995904504383Q479.0473649096636 387.9526776757142 488.23728969469084 395.5854207610563Q497.4272144797181 403.2181638463984 502.558255818025 414.1439633130419Q507.7148247251792 425.06976277968545 507.7148247251792 439.05887050800476L507.7148247251792 439.05887050800476Q507.7148247251792 453.02245066747673 502.8390590753453 463.6674468768Q497.9632934255114 474.33797065497055 490.2539676336274 481.5112175010613Q482.5446418417434 488.684464347152 473.8907960025094 492.36043426116294Q465.26247773212265 496.03640417517386 457.7318449221697 496.03640417517386L457.7318449221697 496.03640417517386Q449.81829857950737 496.03640417517386 445.2233361869937 492.0796310038427Q440.62837379448007 488.12285783251144 440.62837379448007 480.5922250225586L440.62837379448007 480.5922250225586Q440.62837379448007 478.7542400655531 441.18998030912064 475.81856964811385L441.18998030912064 475.81856964811385L440.62837379448007 475.6143490973355Q437.30978984433136 480.5922250225586 432.6382447452758 485.2637701216141Q427.941172077373 489.9608427895169 422.35063449981476 492.9986234823454Q416.7345693534092 496.03640417517386 410.6590079677523 496.03640417517386L410.6590079677523 496.03640417517386Q402.59229621200615 496.03640417517386 398.07391652603434 490.13953577144804Q393.5810644089099 484.2681949365695 393.5810644089099 474.5166636369017L393.5810644089099 474.5166636369017Q393.5810644089099 467.3434167908109 395.9551283117086 458.99590177774445Q398.35471978335465 450.6228591958307 402.59229621200615 442.45403716469536Q406.80434507181025 434.25968756471275 412.777796182078 427.57146452672066Q418.75124729234574 420.8577139198813 425.92449413843644 416.7988304731609Q433.0977409845272 412.7654745952878 440.9857597583423 412.7654745952878L440.9857597583423 412.7654745952878Q444.6617296723532 412.7654745952878 448.26111687982217 413.68446707379053Q451.8349765184439 414.60345955229326 455.89385996516427 416.4414445092987L455.89385996516427 416.4414445092987L455.89385996516427 416.4414445092987L470.39351907042953 413.50577409185945L470.776432603139 414.04185303765274Q470.776432603139 414.04185303765274 469.7553298492471 417.922043502442Q468.7597546642025 421.776706398384 467.2791556710592 427.75015750865174Q465.7985566779159 433.72360861891946 464.06268199629966 440.6926349142318Q462.3268073146834 447.68718877839143 460.667515339609 454.2988291098416Q459.0082233645347 460.9104694412918 457.91053790410086 465.8883453665149Q456.81285244366705 470.84069372289076 456.42993891095756 472.85737166182724L456.42993891095756 472.85737166182724Q456.2512459290265 473.77636414033003 455.89385996516427 475.81856964811385Q455.51094643245483 477.8352475870504 455.51094643245483 480.2093114898491L455.51094643245483 480.2093114898491Q455.51094643245483 483.52789543999785 456.9915454255981 486.0040696181857Q458.4466168498941 488.48024379637366 462.6841932785456 488.48024379637366L462.6841932785456 488.48024379637366Q467.2791556710592 488.48024379637366 472.97180352400665 485.3658803970033Q478.6644513769541 482.2515169976329 483.99971326603935 475.99726263004493Q489.33497515512465 469.74300826245695 492.8322520872045 460.55308347742965Q496.3295290192843 451.36315869240235 496.3295290192843 439.4162564718669L496.3295290192843 439.4162564718669Q496.3295290192843 422.31278534417726 488.8754789158733 410.74879665635126Q481.4214288124623 399.159280399678 468.8363373707444 393.28793956479944Q456.2512459290265 387.3910711610736 440.9857597583423 387.3910711610736L440.9857597583423 387.3910711610736Q425.92449413843644 387.3910711610736 413.0585994393983 392.90502603208995Q400.1927047403601 398.41898090310633 390.64539399147066 408.2726224781634Q381.0725556737339 418.1007364843731 375.7372937846486 431.2474344407316Q370.42755946441065 444.3686048282427 370.42755946441065 459.6340909989269L370.42755946441065 459.6340909989269Q370.42755946441065 478.7542400655531 378.4942712201568 492.8199305004143Q386.5865105447503 506.8600933664282 400.65220097961145 514.5949467271595Q414.71789141447266 522.3042725190435 432.91904800259607 522.3042725190435L432.91904800259607 522.3042725190435Q446.14232866549645 522.3042725190435 458.90611308914544 517.8880031084609Q471.69542508164176 513.4972612667257 482.340421290965 504.48602946362945L482.340421290965 504.48602946362945Q483.4636343202462 505.2263289602011 484.45920950529074 506.50270740256605Q485.48031225918265 507.77908584493093 486.2206117557543 508.69807832343366L486.2206117557543 508.69807832343366Q474.9884814629432 519.9302086162447 460.1059088249685 524.9846672480098Q445.2233361869937 530.0391258797747 429.9578500163096 530.0391258797747ZM444.4830366904221 455.03912860641327L451.47759055458175 427.11196828746927Q443.7427371938505 420.6790209379502 436.9524038804692 420.6790209379502L436.9524038804692 420.6790209379502Q430.6981495128812 420.6790209379502 425.82238386304726 425.7334795697152Q420.97214578206064 430.7879382014802 417.47486884998085 438.59937426875337Q413.977591917901 446.4108103360266 412.13960696089555 455.03912860641327Q410.3016220038901 463.6674468768 410.3016220038901 470.6620007409596L410.3016220038901 470.6620007409596Q410.3016220038901 477.45233405434095 412.2417172362847 481.40910722567213Q414.1562848998321 485.3658803970033 418.57255431041466 485.3658803970033L418.57255431041466 485.3658803970033Q423.52490266679047 485.3658803970033 428.86016455587577 480.87302827987884Q434.195426444961 476.3546485939071 438.43300287361245 469.38562229859474Q442.64505173341666 462.3910684344351 444.4830366904221 455.03912860641327L444.4830366904221 455.03912860641327Z " fill="navy" transform="matrix(0.469659384576505,0,0,0.469659384576505,0,86.28656560078379)"/><path d="M741.9348520439245 509.25401523144285L741.9348520439245 509.25401523144285Q730.7681336714269 509.25401523144285 727.9060756011648 498.11075635132437L727.9060756011648 498.11075635132437Q715.9182749953952 509.5824481247516 703.4143655572833 509.5824481247516L703.4143655572833 509.5824481247516Q694.804731854118 509.5824481247516 688.7991018050436 504.4448192937075Q682.8169312483484 499.2837309702842 682.8169312483484 490.1579884347766L682.8169312483484 490.1579884347766Q682.8169312483484 467.8714706745396 728.2345084944735 462.12389504163633L728.2345084944735 462.12389504163633Q728.2345084944735 458.06540286003525 728.3283464639904 453.84269423177983Q728.4221844335071 449.6199856035244 728.4221844335071 444.9046276353058L728.4221844335071 444.9046276353058Q728.4221844335071 438.9928355557482 724.1056378357349 435.6850471302814Q719.7890912379627 432.4007181971939 713.7130827117506 432.4007181971939L713.7130827117506 432.4007181971939Q709.3261576368409 432.4007181971939 706.2764236275453 433.7613687551873L706.2764236275453 433.7613687551873Q706.2764236275453 437.6321849977548 704.5873401762432 441.6906771793559Q702.898256724941 445.7491693609569 699.9423606851622 448.54084895408135Q696.9864646453833 451.3090690548266 692.7637560171279 451.3090690548266L692.7637560171279 451.3090690548266Q689.0571562212148 451.3090690548266 686.945801907087 449.1977147406988Q684.8344475929594 447.0863604265711 684.8344475929594 444.06008590965473L684.8344475929594 444.06008590965473Q684.8344475929594 440.00159372805365 688.6348853583892 436.36537240927817Q692.4353231238191 432.7291510905026 698.3471152033768 430.1251474364118Q704.2589072829344 427.49768428994173 710.6868081948343 425.97281728529396Q717.091249614355 424.4714097730253 722.1584999682616 424.4714097730253L722.1584999682616 424.4714097730253Q728.4221844335071 424.4714097730253 733.7240297112056 426.7469805338074Q739.0493344812834 429.0225512945895 742.3571229067501 433.50331433901613Q745.6414518398377 437.98407738344275 745.6414518398377 444.55273524961785L745.6414518398377 444.55273524961785Q745.6414518398377 448.61122743121894 745.4772353931833 455.10950682025646Q745.3130189465289 461.6312457016732 745.2191809770121 468.9740668163618Q745.1253430074954 476.3168879310504 744.961126560841 482.90900528960475Q744.7969101141865 489.5011226481591 744.7969101141865 493.53615533738093L744.7969101141865 493.53615533738093Q744.7969101141865 498.95529807697545 749.5357275747843 498.95529807697545L749.5357275747843 498.95529807697545Q752.5620020917007 498.95529807697545 758.8256865569464 496.9143222399853L758.8256865569464 496.9143222399853Q759.4825523435638 497.7588639656364 759.740606759735 498.79108163032106Q759.9986611759062 499.79983980262654 760.1628776225606 500.6443815282776L760.1628776225606 500.6443815282776Q755.940168994305 505.1955230498418 751.2951895032242 507.23649888683195Q746.6502100121431 509.25401523144285 741.9348520439245 509.25401523144285ZM727.9060756011648 493.53615533738093L727.9060756011648 493.53615533738093L728.2345084944735 468.1999035678483Q712.7043245394452 470.2408794048385 706.8863704294043 474.79202092640264Q701.0449568269844 479.3666219403461 701.0449568269844 486.4513886388635L701.0449568269844 486.4513886388635Q701.0449568269844 492.3631807184211 704.1650693134176 495.4832932048543Q707.3086412922299 498.6034056912875 712.0239992604485 498.6034056912875L712.0239992604485 498.6034056912875Q715.0737332697441 498.6034056912875 718.8741710351741 497.2662146256733Q722.674608800604 495.90556406767985 727.9060756011648 493.53615533738093ZM817.9436073525225 507.7291482267951L817.9436073525225 507.7291482267951Q817.5917149668345 505.03130660318743 817.9436073525225 502.4976814262342L817.9436073525225 502.4976814262342Q823.1750741530834 502.1692485329254 825.7086993300366 501.3950852844119Q828.2423245069899 500.6443815282776 829.086866232641 498.11075635132437Q829.9314079582921 495.57713117437106 829.9314079582921 489.9937719881222L829.9314079582921 489.9937719881222L829.9314079582921 455.88367006876996Q829.9314079582921 445.7491693609569 826.8112954718589 440.752297484188Q823.6677234930465 435.77888509979823 814.3777645108846 435.77888509979823L814.3777645108846 435.77888509979823Q809.4981900960116 435.77888509979823 804.9235890820682 437.5618065206172Q800.372447560504 439.32126844905696 794.9533048209096 444.2243023563091L794.9533048209096 444.2243023563091L794.9533048209096 488.30468853682004Q794.9533048209096 494.89680589537437 795.727468069423 497.7588639656364Q796.4781718255573 500.6443815282776 799.0117970025105 501.3950852844119Q801.5454221794638 502.1692485329254 806.9645649190584 502.4976814262342L806.9645649190584 502.4976814262342Q807.292997812367 505.03130660318743 806.9645649190584 507.7291482267951L806.9645649190584 507.7291482267951Q802.2257474584605 507.7291482267951 797.0646591350372 507.5649317801407Q791.9270303039931 507.4007153334863 786.0152382244355 507.4007153334863L786.0152382244355 507.4007153334863Q780.596095484841 507.4007153334863 775.3646286842801 507.5649317801407Q770.1331618837193 507.7291482267951 765.0659115298128 507.7291482267951L765.0659115298128 507.7291482267951Q764.5498026974703 505.03130660318743 765.0659115298128 502.4976814262342L765.0659115298128 502.4976814262342Q770.8134871627159 502.1692485329254 773.5113287863236 501.3950852844119Q776.2091704099312 500.6443815282776 777.0537121355823 498.11075635132437Q777.8982538612335 495.57713117437106 777.8982538612335 489.9937719881222L777.8982538612335 489.9937719881222L777.8982538612335 452.15361078047766Q777.8982538612335 445.5849529143025 777.3117665517535 442.37100245835256Q776.7252792422736 439.15705200240257 774.0978160958035 437.89023941392594Q771.4938124417126 436.6234268254493 765.2301279764671 435.77888509979823L765.2301279764671 435.77888509979823Q764.737478636504 433.4094763694994 765.2301279764671 431.3919600248884L765.2301279764671 431.3919600248884Q779.75155375919 428.5064424622472 791.9270303039931 423.6268680473742L791.9270303039931 423.6268680473742L794.7890883742551 424.6356262196797L794.7890883742551 437.303752104446Q802.5541803517693 430.1955259135494 809.9908394359747 427.33346784328734Q817.4274985201802 424.4714097730253 824.1838323253888 424.4714097730253L824.1838323253888 424.4714097730253Q835.3270912055074 424.4714097730253 841.238883285065 431.04006763920046Q847.1506753646227 437.6321849977548 847.1506753646227 449.9718779892124L847.1506753646227 449.9718779892124L847.1506753646227 488.30468853682004Q847.1506753646227 494.89680589537437 847.9248386131361 497.7588639656364Q848.6755423692704 500.6443815282776 851.2091675462236 501.3950852844119Q853.7427927231769 502.1692485329254 859.3261519094258 502.4976814262342L859.3261519094258 502.4976814262342Q859.6545848027345 505.03130660318743 859.3261519094258 507.7291482267951L859.3261519094258 507.7291482267951Q854.2589015555193 507.7291482267951 849.4262461254048 507.5649317801407Q844.6170501876693 507.4007153334863 838.2126087681486 507.4007153334863L838.2126087681486 507.4007153334863Q831.948924302903 507.4007153334863 827.303944811822 507.5649317801407Q822.6589653207411 507.7291482267951 817.9436073525225 507.7291482267951ZM927.0537064081672 509.25401523144285L927.0537064081672 509.25401523144285Q915.9104475280486 509.25401523144285 913.0249299654074 498.11075635132437L913.0249299654074 498.11075635132437Q901.0371293596379 509.5824481247516 888.5332199215259 509.5824481247516L888.5332199215259 509.5824481247516Q879.9235862183607 509.5824481247516 873.9179561692863 504.4448192937075Q867.9357856125911 499.2837309702842 867.9357856125911 490.1579884347766L867.9357856125911 490.1579884347766Q867.9357856125911 467.8714706745396 913.3768223510954 462.12389504163633L913.3768223510954 462.12389504163633Q913.3768223510954 458.06540286003525 913.447200828233 453.84269423177983Q913.5410387977498 449.6199856035244 913.5410387977498 444.9046276353058L913.5410387977498 444.9046276353058Q913.5410387977498 438.9928355557482 909.2244921999775 435.6850471302814Q904.9314050945845 432.4007181971939 898.8319370759933 432.4007181971939L898.8319370759933 432.4007181971939Q894.4450120010836 432.4007181971939 891.4187374841671 433.7613687551873L891.4187374841671 433.7613687551873Q891.4187374841671 437.6321849977548 889.7296540328649 441.6906771793559Q888.0405705815627 445.7491693609569 885.0846745417839 448.54084895408135Q882.1287785020052 451.3090690548266 877.9060698737497 451.3090690548266L877.9060698737497 451.3090690548266Q874.1760105854574 451.3090690548266 872.0646562713297 449.1977147406988Q869.953301957202 447.0863604265711 869.953301957202 444.06008590965473L869.953301957202 444.06008590965473Q869.953301957202 440.00159372805365 873.7537397226318 436.36537240927817Q877.5541774880618 432.7291510905026 883.4659695676194 430.1251474364118Q889.3777616471771 427.49768428994173 895.805662559077 425.97281728529396Q902.2101039785978 424.4714097730253 907.2773543325043 424.4714097730253L907.2773543325043 424.4714097730253Q913.5410387977498 424.4714097730253 918.8663435678275 426.7469805338074Q924.168188845526 429.0225512945895 927.4759772709928 433.50331433901613Q930.7603062040803 437.98407738344275 930.7603062040803 444.55273524961785L930.7603062040803 444.55273524961785Q930.7603062040803 448.61122743121894 930.596089757426 455.10950682025646Q930.4318733107716 461.6312457016732 930.3380353412547 468.9740668163618Q930.2676568641172 476.3168879310504 930.0799809250835 482.90900528960475Q929.9157644784292 489.5011226481591 929.9157644784292 493.53615533738093L929.9157644784292 493.53615533738093Q929.9157644784292 498.95529807697545 934.654581939027 498.95529807697545L934.654581939027 498.95529807697545Q937.6808564559434 498.95529807697545 943.944540921189 496.9143222399853L943.944540921189 496.9143222399853Q944.6248662001856 497.7588639656364 944.8594611239776 498.79108163032106Q945.1175155401488 499.79983980262654 945.2817319868032 500.6443815282776L945.2817319868032 500.6443815282776Q941.0590233585476 505.1955230498418 936.4140438674667 507.23649888683195Q931.7690643763858 509.25401523144285 927.0537064081672 509.25401523144285ZM913.0249299654074 493.53615533738093L913.0249299654074 493.53615533738093L913.3768223510954 468.1999035678483Q897.8231789036879 470.2408794048385 892.005224793647 474.79202092640264Q886.1638111912271 479.3666219403461 886.1638111912271 486.4513886388635L886.1638111912271 486.4513886388635Q886.1638111912271 492.3631807184211 889.3073831700394 495.4832932048543Q892.4274956564726 498.6034056912875 897.1428536246912 498.6034056912875L897.1428536246912 498.6034056912875Q900.1925876339867 498.6034056912875 903.9930253994166 497.2662146256733Q907.7934631648466 495.90556406767985 913.0249299654074 493.53615533738093ZM1003.062461716765 507.7291482267951L1003.062461716765 507.7291482267951Q1002.7105693310772 505.03130660318743 1003.062461716765 502.4976814262342L1003.062461716765 502.4976814262342Q1008.2939285173261 502.1692485329254 1010.8275536942792 501.3950852844119Q1013.3611788712326 500.6443815282776 1014.2057205968836 498.11075635132437Q1015.0502623225348 495.57713117437106 1015.0502623225348 489.9937719881222L1015.0502623225348 489.9937719881222L1015.0502623225348 455.88367006876996Q1015.0502623225348 445.7491693609569 1011.9301498361015 440.752297484188Q1008.8100373496683 435.77888509979823 999.5200783675064 435.77888509979823L999.5200783675064 435.77888509979823Q994.6170444602542 435.77888509979823 990.0424434463108 437.5618065206172Q985.4913019247466 439.32126844905696 980.0956186775313 444.2243023563091L980.0956186775313 444.2243023563091L980.0956186775313 488.30468853682004Q980.0956186775313 494.89680589537437 980.8463224336656 497.7588639656364Q981.5970261897999 500.6443815282776 984.1306513667532 501.3950852844119Q986.6642765437065 502.1692485329254 992.0834192833009 502.4976814262342L992.0834192833009 502.4976814262342Q992.4118521766097 505.03130660318743 992.0834192833009 507.7291482267951L992.0834192833009 507.7291482267951Q987.3446018227032 507.7291482267951 982.2069729916591 507.5649317801407Q977.0458846682357 507.4007153334863 971.1340925886782 507.4007153334863L971.1340925886782 507.4007153334863Q965.7384093414629 507.4007153334863 960.4834830485228 507.5649317801407Q955.2520162479618 507.7291482267951 950.1847658940553 507.7291482267951L950.1847658940553 507.7291482267951Q949.6921165540921 505.03130660318743 950.1847658940553 502.4976814262342L950.1847658940553 502.4976814262342Q955.9323415269585 502.1692485329254 958.6301831505662 501.3950852844119Q961.3280247741739 500.6443815282776 962.1725664998248 498.11075635132437Q963.017108225476 495.57713117437106 963.017108225476 489.9937719881222L963.017108225476 489.9937719881222L963.017108225476 452.15361078047766Q963.017108225476 445.5849529143025 962.4306209159961 442.37100245835256Q961.8441336065162 439.15705200240257 959.2166704600461 437.89023941392594Q956.6126668059553 436.6234268254493 950.3489823407097 435.77888509979823L950.3489823407097 435.77888509979823Q949.8563330007465 433.4094763694994 950.3489823407097 431.3919600248884L950.3489823407097 431.3919600248884Q964.8938676158118 428.5064424622472 977.0458846682357 423.6268680473742L977.0458846682357 423.6268680473742L979.9079427384977 424.6356262196797L979.9079427384977 437.303752104446Q987.6964942083912 430.1955259135494 995.1096938002173 427.33346784328734Q1002.5463528844227 424.4714097730253 1009.3026866896315 424.4714097730253L1009.3026866896315 424.4714097730253Q1020.4459455697499 424.4714097730253 1026.3577376493076 431.04006763920046Q1032.269529728865 437.6321849977548 1032.269529728865 449.9718779892124L1032.269529728865 449.9718779892124L1032.269529728865 488.30468853682004Q1032.269529728865 494.89680589537437 1033.0436929773787 497.7588639656364Q1033.7943967335132 500.6443815282776 1036.3280219104663 501.3950852844119Q1038.8616470874194 502.1692485329254 1044.4450062736687 502.4976814262342L1044.4450062736687 502.4976814262342Q1044.7734391669774 505.03130660318743 1044.4450062736687 507.7291482267951L1044.4450062736687 507.7291482267951Q1039.377755919762 507.7291482267951 1034.5685599820267 507.5649317801407Q1029.735904551912 507.4007153334863 1023.3314631323913 507.4007153334863L1023.3314631323913 507.4007153334863Q1017.0677786671456 507.4007153334863 1012.4227991760647 507.5649317801407Q1007.7778196849837 507.7291482267951 1003.062461716765 507.7291482267951ZM1117.755919958659 509.7701240637852L1117.755919958659 509.7701240637852L1115.034618842672 508.57368995244616L1114.3777530560542 496.9143222399853Q1108.4659609764967 503.34222315188526 1102.2961144807678 506.46233563831845Q1096.1262679850392 509.5824481247516 1088.6896089008337 509.5824481247516L1088.6896089008337 509.5824481247516Q1078.226675299712 509.5824481247516 1070.3677453526811 503.92871046136514Q1062.5088154056502 498.2749727979787 1058.2861067773947 489.1492302624711Q1054.0633981491392 480.02348772696354 1054.0633981491392 469.39633767918735L1054.0633981491392 469.39633767918735Q1054.0633981491392 457.05664468772983 1059.388702919217 446.9221439799167Q1064.7140076892947 436.7876432721037 1074.4262375342823 430.6177967763749Q1084.1384673792695 424.4714097730253 1097.1350261573448 424.4714097730253L1097.1350261573448 424.4714097730253Q1101.0293018922912 424.4714097730253 1105.2520105205467 425.05789708250524Q1109.4747191488023 425.64438439198517 1114.0258606703665 427.0050349499786L1114.0258606703665 427.0050349499786L1114.0258606703665 405.37538297635905Q1114.0258606703665 400.14391617579815 1113.017102498061 397.5164530293281Q1112.0083443257554 394.91244937523726 1109.0524482859769 393.80985323341497Q1106.096552246198 392.70725709159274 1100.1847601666404 392.19114825925044L1100.1847601666404 392.19114825925044Q1099.668651334298 390.0094154679851 1100.1847601666404 387.64000673768624L1100.1847601666404 387.64000673768624Q1106.941093971849 386.79546501203515 1114.0258606703665 385.0125435912162Q1121.1340868612633 383.25308166277637 1128.5472864530893 380.0391312068264L1128.5472864530893 380.0391312068264L1131.4328040157307 381.0478893791319Q1131.2685875690763 384.7779486674242 1131.1747495995592 389.4933066356428Q1131.0809116300425 394.23212409624057 1131.0809116300425 399.7920237901102L1131.0809116300425 399.7920237901102L1131.0809116300425 483.5893305686015Q1131.0809116300425 489.9937719881222 1131.597020462385 493.2077224440722Q1132.113129294727 496.4216729000222 1134.6467544716807 497.68848548849877Q1137.1803796486338 498.95529807697545 1143.2563881748456 499.9640562492809L1143.2563881748456 499.9640562492809Q1143.749037514809 502.1692485329254 1143.2563881748456 504.5151977708451L1143.2563881748456 504.5151977708451Q1136.500054369637 505.5474154355298 1130.072153457737 506.7203900544896Q1123.6677120382165 507.8933646734494 1117.755919958659 509.7701240637852ZM1114.1900771170208 489.1492302624711L1114.1900771170208 441.3622442860471Q1106.941093971849 431.3919600248884 1095.1175098127337 431.3919600248884L1095.1175098127337 431.3919600248884Q1083.4581421002727 431.3919600248884 1077.5463500207152 439.9077557585369Q1071.6345579411577 448.44701098456454 1071.6345579411577 463.4845455996297L1071.6345579411577 463.4845455996297Q1071.6345579411577 472.2583957494494 1074.0039666714565 480.3753801126515Q1076.3733754017553 488.46890498347443 1081.7690586489707 493.7238312764145Q1087.1647418961861 498.95529807697545 1096.1262679850392 498.95529807697545L1096.1262679850392 498.95529807697545Q1107.4337433118121 498.95529807697545 1114.1900771170208 489.1492302624711L1114.1900771170208 489.1492302624711ZM1211.664267952584 509.25401523144285L1211.664267952584 509.25401523144285Q1200.5210090724654 509.25401523144285 1197.635491509824 498.11075635132437L1197.635491509824 498.11075635132437Q1185.6476909040543 509.5824481247516 1173.1437814659425 509.5824481247516L1173.1437814659425 509.5824481247516Q1164.5341477627771 509.5824481247516 1158.528517713703 504.4448192937075Q1152.5463471570079 499.2837309702842 1152.5463471570079 490.1579884347766L1152.5463471570079 490.1579884347766Q1152.5463471570079 467.8714706745396 1197.9873838955123 462.12389504163633L1197.9873838955123 462.12389504163633Q1197.9873838955123 458.06540286003525 1198.0577623726494 453.84269423177983Q1198.1516003421666 449.6199856035244 1198.1516003421666 444.9046276353058L1198.1516003421666 444.9046276353058Q1198.1516003421666 438.9928355557482 1193.8350537443944 435.6850471302814Q1189.5419666390012 432.4007181971939 1183.4424986204099 432.4007181971939L1183.4424986204099 432.4007181971939Q1179.0555735455 432.4007181971939 1176.0292990285839 433.7613687551873L1176.0292990285839 433.7613687551873Q1176.0292990285839 437.6321849977548 1174.3402155772815 441.6906771793559Q1172.6511321259795 445.7491693609569 1169.6952360862006 448.54084895408135Q1166.7393400464216 451.3090690548266 1162.5166314181665 451.3090690548266L1162.5166314181665 451.3090690548266Q1158.786572129874 451.3090690548266 1156.6752178157462 449.1977147406988Q1154.5638635016185 447.0863604265711 1154.5638635016185 444.06008590965473L1154.5638635016185 444.06008590965473Q1154.5638635016185 440.00159372805365 1158.3643012670486 436.36537240927817Q1162.1647390324783 432.7291510905026 1168.0765311120358 430.1251474364118Q1173.9883231915937 427.49768428994173 1180.4162241034937 425.97281728529396Q1186.8206655230142 424.4714097730253 1191.887915876921 424.4714097730253L1191.887915876921 424.4714097730253Q1198.1516003421666 424.4714097730253 1203.476905112244 426.7469805338074Q1208.7787503899426 429.0225512945895 1212.0865388154093 433.50331433901613Q1215.370867748497 437.98407738344275 1215.370867748497 444.55273524961785L1215.370867748497 444.55273524961785Q1215.370867748497 448.61122743121894 1215.2066513018426 455.10950682025646Q1215.0424348551883 461.6312457016732 1214.9485968856716 468.9740668163618Q1214.878218408534 476.3168879310504 1214.6905424695 482.90900528960475Q1214.5263260228458 489.5011226481591 1214.5263260228458 493.53615533738093L1214.5263260228458 493.53615533738093Q1214.5263260228458 498.95529807697545 1219.2651434834438 498.95529807697545L1219.2651434834438 498.95529807697545Q1222.29141800036 498.95529807697545 1228.5551024656056 496.9143222399853L1228.5551024656056 496.9143222399853Q1229.2354277446025 497.7588639656364 1229.4700226683944 498.79108163032106Q1229.7280770845655 499.79983980262654 1229.8922935312198 500.6443815282776L1229.8922935312198 500.6443815282776Q1225.6695849029643 505.1955230498418 1221.0246054118834 507.23649888683195Q1216.3796259208025 509.25401523144285 1211.664267952584 509.25401523144285ZM1197.635491509824 493.53615533738093L1197.635491509824 493.53615533738093L1197.9873838955123 468.1999035678483Q1182.4337404481043 470.2408794048385 1176.6157863380636 474.79202092640264Q1170.7743727356437 479.3666219403461 1170.7743727356437 486.4513886388635L1170.7743727356437 486.4513886388635Q1170.7743727356437 492.3631807184211 1173.917944714456 495.4832932048543Q1177.0380572008894 498.6034056912875 1181.753415169108 498.6034056912875L1181.753415169108 498.6034056912875Q1184.8031491784036 498.6034056912875 1188.6035869438333 497.2662146256733Q1192.404024709263 495.90556406767985 1197.635491509824 493.53615533738093ZM1224.33239383735 530.0391254794113L1224.33239383735 522.4382499485515L1303.7193160485526 522.4382499485515L1303.7193160485526 530.0391254794113L1224.33239383735 530.0391254794113ZM1404.9001066800288 507.7291482267951L1404.9001066800288 507.7291482267951Q1404.3839978476863 505.03130660318743 1404.9001066800288 502.4976814262342L1404.9001066800288 502.4976814262342Q1409.967357033935 502.1692485329254 1412.5009822108887 501.3950852844119Q1415.0346073878418 500.6443815282776 1415.9495275906306 498.11075635132437Q1416.8879072857985 495.57713117437106 1416.8879072857985 489.9937719881222L1416.8879072857985 489.9937719881222L1416.8879072857985 455.88367006876996Q1416.8879072857985 445.9133858076113 1413.9320112460196 440.84613545370473Q1410.9761152062406 435.77888509979823 1401.8503726707331 435.77888509979823L1401.8503726707331 435.77888509979823Q1390.5428973439602 435.77888509979823 1382.5901294274126 444.2243023563091L1382.5901294274126 444.2243023563091Q1382.9420218131004 446.9221439799167 1382.9420218131004 449.9718779892124L1382.9420218131004 449.9718779892124L1382.9420218131004 488.30468853682004Q1382.9420218131004 494.89680589537437 1383.6927255692349 497.7588639656364Q1384.443429325369 500.6443815282776 1386.9770545023225 501.3950852844119Q1389.5106796792757 502.1692485329254 1394.7656059722158 502.4976814262342L1394.7656059722158 502.4976814262342Q1395.0940388655245 505.03130660318743 1394.7656059722158 507.7291482267951L1394.7656059722158 507.7291482267951Q1390.0267885116177 507.7291482267951 1385.2879710510201 507.5649317801407Q1380.5726130828016 507.4007153334863 1374.1447121709016 507.4007153334863L1374.1447121709016 507.4007153334863Q1367.9044871980354 507.4007153334863 1363.259507706954 507.5649317801407Q1358.6145282158732 507.7291482267951 1354.3918195876176 507.7291482267951L1354.3918195876176 507.7291482267951Q1353.8757107552756 505.03130660318743 1354.3918195876176 502.4976814262342L1354.3918195876176 502.4976814262342Q1359.29485349487 502.1692485329254 1361.7346407023065 501.3950852844119Q1364.174427909743 500.6443815282776 1365.0189696353941 498.11075635132437Q1365.8635113610453 495.57713117437106 1365.8635113610453 489.9937719881222L1365.8635113610453 489.9937719881222L1365.8635113610453 455.88367006876996Q1365.8635113610453 445.9133858076113 1363.001453290783 440.84613545370473Q1360.1393952205212 435.77888509979823 1350.849436238359 435.77888509979823L1350.849436238359 435.77888509979823Q1340.198826698204 435.77888509979823 1332.2695182740354 444.38851880296346L1332.2695182740354 444.38851880296346L1332.2695182740354 488.30468853682004Q1332.2695182740354 494.89680589537437 1333.0202220301694 497.7588639656364Q1333.770925786304 500.6443815282776 1336.3983889327737 501.3950852844119Q1339.025852079244 502.1692485329254 1344.421535326459 502.4976814262342L1344.421535326459 502.4976814262342Q1344.749968219768 505.03130660318743 1344.421535326459 507.7291482267951L1344.421535326459 507.7291482267951Q1339.6827178658614 507.7291482267951 1334.7093054814718 507.5649317801407Q1329.7358930970818 507.4007153334863 1323.3079921851818 507.4007153334863L1323.3079921851818 507.4007153334863Q1317.23198365897 507.4007153334863 1312.328949751718 507.5649317801407Q1307.4259158444656 507.7291482267951 1302.3586654905594 507.7291482267951L1302.3586654905594 507.7291482267951Q1301.866016150596 505.03130660318743 1302.3586654905594 502.4976814262342L1302.3586654905594 502.4976814262342Q1308.1062411234625 502.1692485329254 1310.80408274707 501.3950852844119Q1313.5019243706774 500.6443815282776 1314.3464660963286 498.11075635132437Q1315.1910078219798 495.57713117437106 1315.1910078219798 489.9937719881222L1315.1910078219798 489.9937719881222L1315.1910078219798 452.15361078047766Q1315.1910078219798 445.5849529143025 1314.6045205124997 442.37100245835256Q1314.01803320302 439.15705200240257 1311.3905700565497 437.89023941392594Q1308.786566402459 436.6234268254493 1302.5228819372137 435.77888509979823L1302.5228819372137 435.77888509979823Q1302.0302325972502 433.4094763694994 1302.5228819372137 431.3919600248884L1302.5228819372137 431.3919600248884Q1309.63110812811 430.031309466895 1316.2232254866644 428.1780095689384Q1322.7918833528397 426.32470967098186 1329.2197842647397 423.6268680473742L1329.2197842647397 423.6268680473742L1332.0818423350015 424.6356262196797L1332.0818423350015 437.13953565779167Q1345.7821858844527 424.4714097730253 1360.6320445604842 424.4714097730253L1360.6320445604842 424.4714097730253Q1369.922003542646 424.4714097730253 1374.660821003244 428.3422260155928Q1379.3761789714627 432.2365017505395 1381.2529383617984 437.98407738344275L1381.2529383617984 437.98407738344275Q1388.5019215069701 431.04006763920046 1396.10279703783 427.7557387061129Q1403.7036725686899 424.4714097730253 1411.468764546204 424.4714097730253L1411.468764546204 424.4714097730253Q1422.6354829187017 424.4714097730253 1428.289220582088 431.04006763920046Q1433.9429582454745 437.6321849977548 1433.9429582454745 449.9718779892124L1433.9429582454745 449.9718779892124L1433.9429582454745 488.30468853682004Q1433.9429582454745 494.89680589537437 1434.6232835244714 497.7588639656364Q1435.3036088034678 500.6443815282776 1437.8372339804214 501.3950852844119Q1440.3708591573745 502.1692485329254 1445.6023259579351 502.4976814262342L1445.6023259579351 502.4976814262342Q1446.0949752978986 505.03130660318743 1445.6023259579351 507.7291482267951L1445.6023259579351 507.7291482267951Q1440.8635084973375 507.7291482267951 1436.148150529119 507.5649317801407Q1431.409333068521 507.4007153334863 1425.1691080956548 507.4007153334863L1425.1691080956548 507.4007153334863Q1418.7412071837548 507.4007153334863 1413.9320112460196 507.5649317801407Q1409.1228153082843 507.7291482267951 1404.9001066800288 507.7291482267951ZM1487.3133034081475 509.5824481247516L1487.3133034081475 509.5824481247516Q1476.3342609746833 509.5824481247516 1470.3520904179882 503.0841687357141Q1464.3464603689135 496.58588934667654 1464.3464603689135 484.24619635521896L1464.3464603689135 484.24619635521896L1464.3464603689135 450.1360944358667Q1464.3464603689135 443.5439770773124 1463.7599730594338 440.33002662136244Q1463.1734857499537 437.13953565779167 1460.5460226034838 435.77888509979823Q1457.9185594570135 434.4182345418048 1451.6783344841474 433.5736928161537L1451.6783344841474 433.5736928161537Q1450.8337927584962 431.3919600248884 1451.6783344841474 429.3509841878983L1451.6783344841474 429.3509841878983Q1458.9507771216981 428.3422260155928 1465.61327295739 427.16925139663294Q1472.275768793082 425.97281728529396 1479.0321025982907 424.28373383399173L1479.0321025982907 424.28373383399173L1481.5657277752439 425.4801679453308Q1481.40151132859 430.71163474589173 1481.331132851452 435.3566142369727Q1481.2372948819352 440.00159372805365 1481.2372948819352 444.06008590965473L1481.2372948819352 444.06008590965473L1481.2372948819352 478.170187829007Q1481.2372948819352 488.30468853682004 1484.3574073683685 493.301560413589Q1487.4775198548018 498.2749727979787 1496.6032623903093 498.2749727979787L1496.6032623903093 498.2749727979787Q1501.670512744216 498.2749727979787 1506.1512757886426 495.9994020371966Q1510.6320388330691 493.7238312764145 1514.6905310146703 489.3134467091255L1514.6905310146703 489.3134467091255L1514.6905310146703 450.1360944358667Q1514.6905310146703 443.5439770773124 1514.0805842128111 440.33002662136244Q1513.494096903331 437.13953565779167 1510.8900932492402 435.77888509979823Q1508.2626301027703 434.4182345418048 1502.0224051299037 433.5736928161537L1502.0224051299037 433.5736928161537Q1501.5062962975617 431.3919600248884 1502.0224051299037 429.3509841878983L1502.0224051299037 429.3509841878983Q1509.2713882750759 428.3422260155928 1515.957343603147 427.16925139663294Q1522.6198394388389 425.97281728529396 1529.5403896907019 424.28373383399173L1529.5403896907019 424.28373383399173L1532.074014867655 425.4801679453308Q1531.9097984210007 430.71163474589173 1531.815960451484 435.3566142369727Q1531.7455819743464 440.00159372805365 1531.7455819743464 444.06008590965473L1531.7455819743464 444.06008590965473L1531.7455819743464 487.8120391968569Q1531.7455819743464 492.8792895507634 1532.332069283826 495.41291472771667Q1532.9185565933062 497.94653990467 1535.7102361864304 499.02567655411303Q1538.501915779555 500.12827269593527 1544.9063571990755 500.80859797493196L1544.9063571990755 500.80859797493196Q1545.0940331381094 502.8261143195429 1544.9063571990755 505.03130660318743L1544.9063571990755 505.03130660318743Q1537.6573740539038 505.7116318821841 1531.0652566953495 506.7203900544896Q1524.4731393367952 507.7291482267951 1518.232914363929 509.25401523144285L1518.232914363929 509.25401523144285L1515.535072740321 508.08104061248304L1515.1831803546334 496.2574564533678Q1501.177863404253 509.5824481247516 1487.3133034081475 509.5824481247516ZM1603.8600615479977 507.7291482267951L1603.8600615479977 507.7291482267951Q1603.5316286546886 505.03130660318743 1603.8600615479977 502.4976814262342L1603.8600615479977 502.4976814262342Q1609.0915283485583 502.1692485329254 1611.625153525512 501.3950852844119Q1614.158778702465 500.6443815282776 1615.0033204281158 498.11075635132437Q1615.847862153767 495.57713117437106 1615.847862153767 489.9937719881222L1615.847862153767 489.9937719881222L1615.847862153767 455.88367006876996Q1615.847862153767 445.7491693609569 1612.7277496673337 440.752297484188Q1609.6076371809008 435.77888509979823 1600.317678198739 435.77888509979823L1600.317678198739 435.77888509979823Q1595.4146442914866 435.77888509979823 1590.8635027699224 437.5618065206172Q1586.2889017559792 439.32126844905696 1581.057434955418 444.06008590965473L1581.057434955418 444.06008590965473L1581.057434955418 488.30468853682004Q1581.057434955418 494.89680589537437 1581.8315982039317 497.7588639656364Q1582.5823019600657 500.6443815282776 1585.0220891675021 501.3950852844119Q1587.485335867318 502.1692485329254 1592.7168026678792 502.4976814262342L1592.7168026678792 502.4976814262342Q1593.56134439353 505.03130660318743 1592.7168026678792 507.7291482267951L1592.7168026678792 507.7291482267951Q1588.4940940396236 507.7291482267951 1583.426843685717 507.5649317801407Q1578.3595933318106 507.4007153334863 1572.119368358944 507.4007153334863L1572.119368358944 507.4007153334863Q1565.8556838936984 507.4007153334863 1560.9526499864464 507.5649317801407Q1556.0730755715736 507.7291482267951 1551.0058252176668 507.7291482267951L1551.0058252176668 507.7291482267951Q1550.4897163853248 505.03130660318743 1551.0058252176668 502.4976814262342L1551.0058252176668 502.4976814262342Q1556.729941358191 502.1692485329254 1559.451242474178 501.3950852844119Q1562.1490840977854 500.6443815282776 1562.9936258234366 498.11075635132437Q1563.8381675490878 495.57713117437106 1563.8381675490878 489.9937719881222L1563.8381675490878 489.9937719881222L1563.8381675490878 408.58933343230905Q1563.8381675490878 403.6862995250569 1563.673951102433 400.7304034852781Q1563.4862751633996 397.7745074454993 1562.1490840977854 396.0854239941971L1562.1490840977854 396.0854239941971Q1560.788433539792 394.23212409624057 1558.254808362839 393.45796084772707Q1555.7211831858854 392.70725709159274 1550.161283492016 392.19114825925044L1550.161283492016 392.19114825925044Q1549.6451746596736 390.0094154679851 1550.161283492016 387.64000673768624L1550.161283492016 387.64000673768624Q1556.9176172972248 386.79546501203515 1563.8381675490878 385.0125435912162Q1570.7587178009508 383.25308166277637 1578.523809778465 380.0391312068264L1578.523809778465 380.0391312068264L1581.4093273411063 381.0478893791319Q1581.2216514020724 384.7779486674242 1581.1512729249348 389.4229281585052Q1581.057434955418 394.0679076495862 1581.057434955418 399.62780734345586L1581.057434955418 399.62780734345586L1581.057434955418 437.13953565779167Q1588.658310486278 430.031309466895 1596.0011316009663 427.2396298737705Q1603.3674122080342 424.4714097730253 1610.123746013243 424.4714097730253L1610.123746013243 424.4714097730253Q1621.2670048933614 424.4714097730253 1627.1787969729194 431.04006763920046Q1633.0905890524768 437.6321849977548 1633.0905890524768 449.9718779892124L1633.0905890524768 449.9718779892124L1633.0905890524768 488.30468853682004Q1633.0905890524768 494.89680589537437 1633.841292808611 497.7588639656364Q1634.6154560571244 500.6443815282776 1637.1490812340776 501.3950852844119Q1639.6827064110312 502.1692485329254 1645.242606104901 502.4976814262342L1645.242606104901 502.4976814262342Q1645.5944984905886 505.03130660318743 1645.242606104901 507.7291482267951L1645.242606104901 507.7291482267951Q1640.1753557509942 507.7291482267951 1635.366159813259 507.5649317801407Q1630.5569638755237 507.4007153334863 1624.1290629636237 507.4007153334863L1624.1290629636237 507.4007153334863Q1617.888837990757 507.4007153334863 1613.2438584996762 507.5649317801407Q1608.5988790085953 507.7291482267951 1603.8600615479977 507.7291482267951ZM1686.4609342151498 509.5824481247516L1686.4609342151498 509.5824481247516Q1675.4818917816856 509.5824481247516 1669.476261732611 503.0841687357141Q1663.4940911759159 496.58588934667654 1663.4940911759159 484.24619635521896L1663.4940911759159 484.24619635521896L1663.4940911759159 450.1360944358667Q1663.4940911759159 443.5439770773124 1662.9076038664361 440.33002662136244Q1662.297657064577 437.13953565779167 1659.6936534104861 435.77888509979823Q1657.0661902640159 434.4182345418048 1650.8259652911497 433.5736928161537L1650.8259652911497 433.5736928161537Q1649.9814235654985 431.3919600248884 1650.8259652911497 429.3509841878983L1650.8259652911497 429.3509841878983Q1658.0749484363214 428.3422260155928 1664.7609037643924 427.16925139663294Q1671.4233996000844 425.97281728529396 1678.179733405293 424.28373383399173L1678.179733405293 424.28373383399173L1680.7133585822462 425.4801679453308Q1680.5491421355923 430.71163474589173 1680.4553041660752 435.3566142369727Q1680.3849256889375 440.00159372805365 1680.3849256889375 444.06008590965473L1680.3849256889375 444.06008590965473L1680.3849256889375 478.170187829007Q1680.3849256889375 488.30468853682004 1683.5050381753708 493.301560413589Q1686.6251506618041 498.2749727979787 1695.7508931973116 498.2749727979787L1695.7508931973116 498.2749727979787Q1700.8181435512183 498.2749727979787 1705.298906595645 495.9994020371966Q1709.7796696400715 493.7238312764145 1713.8147023292936 489.3134467091255L1713.8147023292936 489.3134467091255L1713.8147023292936 450.1360944358667Q1713.8147023292936 443.5439770773124 1713.2282150198134 440.33002662136244Q1712.6417277103337 437.13953565779167 1710.0142645638634 435.77888509979823Q1707.4102609097727 434.4182345418048 1701.146576444527 433.5736928161537L1701.146576444527 433.5736928161537Q1700.653927104564 431.3919600248884 1701.146576444527 429.3509841878983L1701.146576444527 429.3509841878983Q1708.4190190820782 428.3422260155928 1715.0815149177697 427.16925139663294Q1721.7674702458412 425.97281728529396 1728.6880204977042 424.28373383399173L1728.6880204977042 424.28373383399173L1731.2216456746573 425.4801679453308Q1731.057429228003 430.71163474589173 1730.9635912584863 435.3566142369727Q1730.8932127813487 440.00159372805365 1730.8932127813487 444.06008590965473L1730.8932127813487 444.06008590965473L1730.8932127813487 487.8120391968569Q1730.8932127813487 492.8792895507634 1731.4797000908284 495.41291472771667Q1732.0661874003085 497.94653990467 1734.8578669934332 499.02567655411303Q1737.6495465865573 500.12827269593527 1744.0539880060783 500.80859797493196L1744.0539880060783 500.80859797493196Q1744.2182044527326 502.8261143195429 1744.0539880060783 505.03130660318743L1744.0539880060783 505.03130660318743Q1736.8050048609061 505.7116318821841 1730.2128875023518 506.7203900544896Q1723.6207701437975 507.7291482267951 1717.3805451709313 509.25401523144285L1717.3805451709313 509.25401523144285L1714.6592440549443 508.08104061248304L1714.3308111616357 496.2574564533678Q1700.3020347188758 509.5824481247516 1686.4609342151498 509.5824481247516ZM1751.326430643629 507.7291482267951L1751.326430643629 507.7291482267951Q1750.810321811287 505.03130660318743 1751.326430643629 502.4976814262342L1751.326430643629 502.4976814262342Q1757.0740062765321 502.1692485329254 1759.77184790014 501.3950852844119Q1762.469689523748 500.6443815282776 1763.3142312493987 498.11075635132437Q1764.15877297505 495.57713117437106 1764.15877297505 489.9937719881222L1764.15877297505 489.9937719881222L1764.15877297505 452.15361078047766Q1764.15877297505 445.5849529143025 1763.5722856655698 442.37100245835256Q1762.98579835609 439.15705200240257 1760.3583352096198 437.89023941392594Q1757.73087206315 436.6234268254493 1751.4906470902838 435.77888509979823L1751.4906470902838 435.77888509979823Q1750.9745382579413 433.4094763694994 1751.4906470902838 431.3919600248884L1751.4906470902838 431.3919600248884Q1758.246980895492 430.031309466895 1764.674881807392 428.27184753845523Q1771.079323226913 426.48892611763625 1778.1875494178098 423.6268680473742L1778.1875494178098 423.6268680473742L1781.0496074880716 424.6356262196797L1781.0496074880716 439.48548489571135Q1792.8731916471866 424.4714097730253 1805.2128846386445 424.4714097730253L1805.2128846386445 424.4714097730253Q1811.124676718202 424.4714097730253 1813.9867347884642 427.5915222594585Q1816.848792858726 430.71163474589173 1816.848792858726 434.60591048083836L1816.848792858726 434.60591048083836Q1816.848792858726 439.15705200240257 1813.8225183418094 441.59683920983906Q1810.7727843325142 444.06008590965473 1806.9019680899469 444.06008590965473L1806.9019680899469 444.06008590965473Q1803.6880176339969 444.06008590965473 1800.5679051475631 442.37100245835256Q1797.4243331687508 440.68191900705034 1795.9229256564827 437.13953565779167L1795.9229256564827 437.13953565779167Q1790.175350023579 437.13953565779167 1785.6945869791525 441.59683920983906Q1781.213823934726 446.0776022542656 1781.213823934726 451.98939433382327L1781.213823934726 451.98939433382327L1781.213823934726 488.30468853682004Q1781.213823934726 494.89680589537437 1781.9879871832395 497.7588639656364Q1782.738690939374 500.6443815282776 1786.0230198724612 501.3950852844119Q1789.3308082979283 502.1692485329254 1796.7674673821334 502.4976814262342L1796.7674673821334 502.4976814262342Q1797.0959002754425 504.86709015653304 1796.7674673821334 507.7291482267951L1796.7674673821334 507.7291482267951Q1791.0198917492303 507.7291482267951 1784.9438832230185 507.5649317801407Q1778.8444152044272 507.4007153334863 1772.4399737849062 507.4007153334863L1772.4399737849062 507.4007153334863Q1766.176289319661 507.4007153334863 1761.3670933819253 507.5649317801407Q1756.55789744419 507.7291482267951 1751.326430643629 507.7291482267951ZM1862.8059384295725 507.7291482267951L1862.8059384295725 507.7291482267951Q1858.067120968975 507.7291482267951 1852.9998706150682 507.5649317801407Q1847.932620261162 507.4007153334863 1842.0208281816044 507.4007153334863L1842.0208281816044 507.4007153334863Q1836.625144934389 507.4007153334863 1831.135623717657 507.5649317801407Q1825.6461025009248 507.7291482267951 1820.5788521470186 507.7291482267951L1820.5788521470186 507.7291482267951Q1820.062743314676 505.03130660318743 1820.5788521470186 502.4976814262342L1820.5788521470186 502.4976814262342Q1826.3264277799212 502.1692485329254 1829.0242694035292 501.3950852844119Q1831.722111027137 500.6443815282776 1832.5666527527878 498.11075635132437Q1833.411194478439 495.57713117437106 1833.411194478439 489.9937719881222L1833.411194478439 489.9937719881222L1833.411194478439 452.15361078047766Q1833.411194478439 445.5849529143025 1832.895085646097 442.37100245835256Q1832.4024363061335 439.15705200240257 1829.7749731596637 437.89023941392594Q1827.1709695055729 436.6234268254493 1820.743068593673 435.77888509979823L1820.743068593673 435.77888509979823Q1820.2269597613304 433.4094763694994 1820.743068593673 431.3919600248884L1820.743068593673 431.3919600248884Q1828.179727677878 430.031309466895 1834.936061483087 428.0137931222841Q1841.6923952882958 425.97281728529396 1847.932620261162 423.6268680473742L1847.932620261162 423.6268680473742L1850.8181378238032 424.6356262196797Q1850.6304618847694 429.8670930202406 1850.5600834076317 434.4182345418048Q1850.466245438115 438.9928355557482 1850.466245438115 443.05132773734925L1850.466245438115 443.05132773734925L1850.466245438115 488.30468853682004Q1850.466245438115 494.89680589537437 1851.2404086866286 497.7588639656364Q1851.991112442763 500.6443815282776 1854.618575589233 501.3950852844119Q1857.2225792433237 502.1692485329254 1862.8059384295725 502.4976814262342L1862.8059384295725 502.4976814262342Q1863.2985877695355 505.03130660318743 1862.8059384295725 507.7291482267951ZM1829.0242694035292 394.91244937523726L1829.0242694035292 394.91244937523726Q1829.0242694035292 390.0094154679851 1832.4728147832711 386.63124856538076Q1835.9448196553922 383.25308166277637 1840.8478535626446 383.25308166277637L1840.8478535626446 383.25308166277637Q1845.563211530863 383.25308166277637 1849.0352164029841 386.63124856538076Q1852.5072212751052 390.0094154679851 1852.5072212751052 394.7247734362037L1852.5072212751052 394.7247734362037Q1852.5072212751052 399.13515800349273 1849.1290543725008 402.74791982988904Q1845.7508874698965 406.3841411486645 1840.4959611769564 406.3841411486645L1840.4959611769564 406.3841411486645Q1835.7806032087378 406.3841411486645 1832.4024363061335 403.0059742460602Q1829.0242694035292 399.62780734345586 1829.0242694035292 394.91244937523726Z " fill="navy" transform="matrix(0.469659384576505,0,0,0.469659384576505,0,86.28656560078379)"/></g></svg>